<mxfile host="Electron" agent="Mozilla/5.0 (Windows NT 10.0; Win64; x64) AppleWebKit/537.36 (KHTML, like Gecko) draw.io/26.0.4 Chrome/128.0.6613.186 Electron/32.2.5 Safari/537.36" version="26.0.4">
  <diagram name="Страница — 1" id="QCkiqszN2Pb67PEKyk7I">
    <mxGraphModel dx="1075" dy="598" grid="1" gridSize="10" guides="1" tooltips="1" connect="1" arrows="1" fold="1" page="1" pageScale="1" pageWidth="827" pageHeight="1169" math="0" shadow="0">
      <root>
        <mxCell id="0" />
        <mxCell id="1" parent="0" />
        <mxCell id="mXG6o0LxJBM9iFZ1iKF0-4" style="edgeStyle=orthogonalEdgeStyle;rounded=0;orthogonalLoop=1;jettySize=auto;html=1;" edge="1" parent="1" source="mXG6o0LxJBM9iFZ1iKF0-1" target="mXG6o0LxJBM9iFZ1iKF0-3">
          <mxGeometry relative="1" as="geometry" />
        </mxCell>
        <mxCell id="mXG6o0LxJBM9iFZ1iKF0-1" value="Начало" style="ellipse;whiteSpace=wrap;html=1;" vertex="1" parent="1">
          <mxGeometry x="200" y="10" width="80" height="50" as="geometry" />
        </mxCell>
        <mxCell id="mXG6o0LxJBM9iFZ1iKF0-2" value="&lt;div&gt;#include &amp;lt;iostream&amp;gt;&lt;/div&gt;&lt;div&gt;#include &amp;lt;clocale&amp;gt;&lt;/div&gt;&lt;div&gt;#include &amp;lt;ctime&amp;gt;&lt;/div&gt;&lt;div&gt;using namespace std;&lt;/div&gt;" style="text;html=1;align=center;verticalAlign=middle;whiteSpace=wrap;rounded=0;" vertex="1" parent="1">
          <mxGeometry x="296" y="45" width="130" height="70" as="geometry" />
        </mxCell>
        <mxCell id="mXG6o0LxJBM9iFZ1iKF0-12" style="edgeStyle=orthogonalEdgeStyle;rounded=0;orthogonalLoop=1;jettySize=auto;html=1;" edge="1" parent="1" source="mXG6o0LxJBM9iFZ1iKF0-3" target="mXG6o0LxJBM9iFZ1iKF0-10">
          <mxGeometry relative="1" as="geometry" />
        </mxCell>
        <mxCell id="mXG6o0LxJBM9iFZ1iKF0-3" value="int main()" style="shape=process;whiteSpace=wrap;html=1;backgroundOutline=1;" vertex="1" parent="1">
          <mxGeometry x="200" y="110" width="80" height="20" as="geometry" />
        </mxCell>
        <mxCell id="mXG6o0LxJBM9iFZ1iKF0-5" value="" style="endArrow=none;dashed=1;html=1;rounded=0;entryX=0;entryY=0.5;entryDx=0;entryDy=0;" edge="1" parent="1" target="mXG6o0LxJBM9iFZ1iKF0-2">
          <mxGeometry width="50" height="50" relative="1" as="geometry">
            <mxPoint x="240" y="80" as="sourcePoint" />
            <mxPoint x="470" y="220" as="targetPoint" />
          </mxGeometry>
        </mxCell>
        <mxCell id="mXG6o0LxJBM9iFZ1iKF0-6" value="" style="endArrow=none;html=1;rounded=0;entryX=0;entryY=0;entryDx=0;entryDy=0;exitX=0;exitY=1;exitDx=0;exitDy=0;" edge="1" parent="1" source="mXG6o0LxJBM9iFZ1iKF0-2" target="mXG6o0LxJBM9iFZ1iKF0-2">
          <mxGeometry width="50" height="50" relative="1" as="geometry">
            <mxPoint x="420" y="270" as="sourcePoint" />
            <mxPoint x="470" y="220" as="targetPoint" />
          </mxGeometry>
        </mxCell>
        <mxCell id="mXG6o0LxJBM9iFZ1iKF0-7" value="" style="endArrow=none;html=1;rounded=0;exitX=0;exitY=1;exitDx=0;exitDy=0;entryX=1;entryY=1;entryDx=0;entryDy=0;" edge="1" parent="1" source="mXG6o0LxJBM9iFZ1iKF0-2" target="mXG6o0LxJBM9iFZ1iKF0-2">
          <mxGeometry width="50" height="50" relative="1" as="geometry">
            <mxPoint x="420" y="270" as="sourcePoint" />
            <mxPoint x="470" y="220" as="targetPoint" />
          </mxGeometry>
        </mxCell>
        <mxCell id="mXG6o0LxJBM9iFZ1iKF0-8" value="" style="endArrow=none;html=1;rounded=0;exitX=0;exitY=0;exitDx=0;exitDy=0;entryX=1;entryY=0;entryDx=0;entryDy=0;" edge="1" parent="1" source="mXG6o0LxJBM9iFZ1iKF0-2" target="mXG6o0LxJBM9iFZ1iKF0-2">
          <mxGeometry width="50" height="50" relative="1" as="geometry">
            <mxPoint x="420" y="270" as="sourcePoint" />
            <mxPoint x="470" y="220" as="targetPoint" />
          </mxGeometry>
        </mxCell>
        <mxCell id="mXG6o0LxJBM9iFZ1iKF0-14" style="edgeStyle=orthogonalEdgeStyle;rounded=0;orthogonalLoop=1;jettySize=auto;html=1;entryX=0.5;entryY=0;entryDx=0;entryDy=0;" edge="1" parent="1" source="mXG6o0LxJBM9iFZ1iKF0-9" target="mXG6o0LxJBM9iFZ1iKF0-11">
          <mxGeometry relative="1" as="geometry" />
        </mxCell>
        <mxCell id="mXG6o0LxJBM9iFZ1iKF0-9" value="srand(time(0));" style="rounded=0;whiteSpace=wrap;html=1;" vertex="1" parent="1">
          <mxGeometry x="195" y="190" width="90" height="20" as="geometry" />
        </mxCell>
        <mxCell id="mXG6o0LxJBM9iFZ1iKF0-13" style="edgeStyle=orthogonalEdgeStyle;rounded=0;orthogonalLoop=1;jettySize=auto;html=1;entryX=0.5;entryY=0;entryDx=0;entryDy=0;" edge="1" parent="1" source="mXG6o0LxJBM9iFZ1iKF0-10" target="mXG6o0LxJBM9iFZ1iKF0-9">
          <mxGeometry relative="1" as="geometry" />
        </mxCell>
        <mxCell id="mXG6o0LxJBM9iFZ1iKF0-10" value="setlocale(0, &quot;&quot;);" style="rounded=0;whiteSpace=wrap;html=1;" vertex="1" parent="1">
          <mxGeometry x="195" y="150" width="90" height="20" as="geometry" />
        </mxCell>
        <mxCell id="mXG6o0LxJBM9iFZ1iKF0-65" style="edgeStyle=orthogonalEdgeStyle;rounded=0;orthogonalLoop=1;jettySize=auto;html=1;" edge="1" parent="1" source="mXG6o0LxJBM9iFZ1iKF0-11" target="mXG6o0LxJBM9iFZ1iKF0-64">
          <mxGeometry relative="1" as="geometry" />
        </mxCell>
        <mxCell id="mXG6o0LxJBM9iFZ1iKF0-11" value="int n;" style="rounded=0;whiteSpace=wrap;html=1;" vertex="1" parent="1">
          <mxGeometry x="220" y="230" width="40" height="20" as="geometry" />
        </mxCell>
        <mxCell id="mXG6o0LxJBM9iFZ1iKF0-18" style="edgeStyle=orthogonalEdgeStyle;rounded=0;orthogonalLoop=1;jettySize=auto;html=1;" edge="1" parent="1" source="mXG6o0LxJBM9iFZ1iKF0-15" target="mXG6o0LxJBM9iFZ1iKF0-16">
          <mxGeometry relative="1" as="geometry" />
        </mxCell>
        <mxCell id="mXG6o0LxJBM9iFZ1iKF0-15" value="int count(int* mas, int n)" style="shape=process;whiteSpace=wrap;html=1;backgroundOutline=1;" vertex="1" parent="1">
          <mxGeometry x="720" y="40" width="170" height="20" as="geometry" />
        </mxCell>
        <mxCell id="mXG6o0LxJBM9iFZ1iKF0-19" style="edgeStyle=orthogonalEdgeStyle;rounded=0;orthogonalLoop=1;jettySize=auto;html=1;entryX=0.5;entryY=0;entryDx=0;entryDy=0;" edge="1" parent="1" source="mXG6o0LxJBM9iFZ1iKF0-16" target="mXG6o0LxJBM9iFZ1iKF0-17">
          <mxGeometry relative="1" as="geometry" />
        </mxCell>
        <mxCell id="mXG6o0LxJBM9iFZ1iKF0-16" value="int count = 0;" style="rounded=0;whiteSpace=wrap;html=1;" vertex="1" parent="1">
          <mxGeometry x="765" y="80" width="80" height="20" as="geometry" />
        </mxCell>
        <mxCell id="mXG6o0LxJBM9iFZ1iKF0-21" style="edgeStyle=orthogonalEdgeStyle;rounded=0;orthogonalLoop=1;jettySize=auto;html=1;" edge="1" parent="1" source="mXG6o0LxJBM9iFZ1iKF0-17" target="mXG6o0LxJBM9iFZ1iKF0-20">
          <mxGeometry relative="1" as="geometry" />
        </mxCell>
        <mxCell id="mXG6o0LxJBM9iFZ1iKF0-35" style="edgeStyle=orthogonalEdgeStyle;rounded=0;orthogonalLoop=1;jettySize=auto;html=1;entryX=0.5;entryY=0;entryDx=0;entryDy=0;" edge="1" parent="1" source="mXG6o0LxJBM9iFZ1iKF0-17" target="mXG6o0LxJBM9iFZ1iKF0-23">
          <mxGeometry relative="1" as="geometry">
            <Array as="points">
              <mxPoint x="890" y="130" />
            </Array>
          </mxGeometry>
        </mxCell>
        <mxCell id="mXG6o0LxJBM9iFZ1iKF0-17" value="for (int i = 0; i &amp;lt; n; i++)" style="shape=hexagon;perimeter=hexagonPerimeter2;whiteSpace=wrap;html=1;fixedSize=1;" vertex="1" parent="1">
          <mxGeometry x="730" y="120" width="150" height="20" as="geometry" />
        </mxCell>
        <mxCell id="mXG6o0LxJBM9iFZ1iKF0-27" style="edgeStyle=orthogonalEdgeStyle;rounded=0;orthogonalLoop=1;jettySize=auto;html=1;" edge="1" parent="1" source="mXG6o0LxJBM9iFZ1iKF0-20">
          <mxGeometry relative="1" as="geometry">
            <mxPoint x="810" y="220" as="targetPoint" />
            <Array as="points">
              <mxPoint x="880" y="175" />
              <mxPoint x="880" y="220" />
              <mxPoint x="820" y="220" />
            </Array>
          </mxGeometry>
        </mxCell>
        <mxCell id="mXG6o0LxJBM9iFZ1iKF0-78" style="edgeStyle=orthogonalEdgeStyle;rounded=0;orthogonalLoop=1;jettySize=auto;html=1;entryX=0.5;entryY=0;entryDx=0;entryDy=0;" edge="1" parent="1" source="mXG6o0LxJBM9iFZ1iKF0-20" target="mXG6o0LxJBM9iFZ1iKF0-22">
          <mxGeometry relative="1" as="geometry">
            <Array as="points">
              <mxPoint x="734" y="175" />
            </Array>
          </mxGeometry>
        </mxCell>
        <mxCell id="mXG6o0LxJBM9iFZ1iKF0-20" value="if (mas[i] &amp;lt; 0)" style="rhombus;whiteSpace=wrap;html=1;" vertex="1" parent="1">
          <mxGeometry x="745" y="160" width="120" height="30" as="geometry" />
        </mxCell>
        <mxCell id="mXG6o0LxJBM9iFZ1iKF0-28" style="edgeStyle=orthogonalEdgeStyle;rounded=0;orthogonalLoop=1;jettySize=auto;html=1;" edge="1" parent="1" source="mXG6o0LxJBM9iFZ1iKF0-22">
          <mxGeometry relative="1" as="geometry">
            <mxPoint x="810" y="220" as="targetPoint" />
            <Array as="points">
              <mxPoint x="734" y="220" />
              <mxPoint x="810" y="220" />
            </Array>
          </mxGeometry>
        </mxCell>
        <mxCell id="mXG6o0LxJBM9iFZ1iKF0-22" value="count += 1;" style="rounded=0;whiteSpace=wrap;html=1;" vertex="1" parent="1">
          <mxGeometry x="699" y="190" width="70" height="20" as="geometry" />
        </mxCell>
        <mxCell id="mXG6o0LxJBM9iFZ1iKF0-23" value="return count;" style="rounded=0;whiteSpace=wrap;html=1;" vertex="1" parent="1">
          <mxGeometry x="850" y="230" width="80" height="20" as="geometry" />
        </mxCell>
        <mxCell id="mXG6o0LxJBM9iFZ1iKF0-25" value="1" style="text;html=1;align=center;verticalAlign=middle;whiteSpace=wrap;rounded=0;" vertex="1" parent="1">
          <mxGeometry x="784" y="140" width="16" height="15" as="geometry" />
        </mxCell>
        <mxCell id="mXG6o0LxJBM9iFZ1iKF0-26" value="1" style="text;html=1;align=center;verticalAlign=middle;whiteSpace=wrap;rounded=0;" vertex="1" parent="1">
          <mxGeometry x="730" y="158" width="16" height="15" as="geometry" />
        </mxCell>
        <mxCell id="mXG6o0LxJBM9iFZ1iKF0-29" value="0" style="text;html=1;align=center;verticalAlign=middle;whiteSpace=wrap;rounded=0;" vertex="1" parent="1">
          <mxGeometry x="860" y="160" width="20" height="15" as="geometry" />
        </mxCell>
        <mxCell id="mXG6o0LxJBM9iFZ1iKF0-30" value="0" style="text;html=1;align=center;verticalAlign=middle;whiteSpace=wrap;rounded=0;" vertex="1" parent="1">
          <mxGeometry x="880" y="113" width="20" height="15" as="geometry" />
        </mxCell>
        <mxCell id="mXG6o0LxJBM9iFZ1iKF0-31" value="{" style="text;html=1;align=center;verticalAlign=middle;whiteSpace=wrap;rounded=0;" vertex="1" parent="1">
          <mxGeometry x="781" y="60" width="19" height="20" as="geometry" />
        </mxCell>
        <mxCell id="mXG6o0LxJBM9iFZ1iKF0-32" value="{" style="text;html=1;align=center;verticalAlign=middle;whiteSpace=wrap;rounded=0;" vertex="1" parent="1">
          <mxGeometry x="220" y="130" width="19" height="20" as="geometry" />
        </mxCell>
        <mxCell id="mXG6o0LxJBM9iFZ1iKF0-33" value="}" style="text;html=1;align=center;verticalAlign=middle;whiteSpace=wrap;rounded=0;" vertex="1" parent="1">
          <mxGeometry x="930" y="230" width="14" height="20" as="geometry" />
        </mxCell>
        <mxCell id="mXG6o0LxJBM9iFZ1iKF0-34" value="" style="endArrow=classic;html=1;rounded=0;entryX=0;entryY=0.5;entryDx=0;entryDy=0;" edge="1" parent="1" target="mXG6o0LxJBM9iFZ1iKF0-17">
          <mxGeometry width="50" height="50" relative="1" as="geometry">
            <mxPoint x="810" y="220" as="sourcePoint" />
            <mxPoint x="700" y="120" as="targetPoint" />
            <Array as="points">
              <mxPoint x="810" y="230" />
              <mxPoint x="690" y="230" />
              <mxPoint x="690" y="130" />
            </Array>
          </mxGeometry>
        </mxCell>
        <mxCell id="mXG6o0LxJBM9iFZ1iKF0-39" style="edgeStyle=orthogonalEdgeStyle;rounded=0;orthogonalLoop=1;jettySize=auto;html=1;entryX=0.5;entryY=0;entryDx=0;entryDy=0;" edge="1" parent="1" source="mXG6o0LxJBM9iFZ1iKF0-36" target="mXG6o0LxJBM9iFZ1iKF0-37">
          <mxGeometry relative="1" as="geometry" />
        </mxCell>
        <mxCell id="mXG6o0LxJBM9iFZ1iKF0-36" value="int count(string* mas, int n)" style="shape=process;whiteSpace=wrap;html=1;backgroundOutline=1;" vertex="1" parent="1">
          <mxGeometry x="449" y="45" width="210" height="20" as="geometry" />
        </mxCell>
        <mxCell id="mXG6o0LxJBM9iFZ1iKF0-41" style="edgeStyle=orthogonalEdgeStyle;rounded=0;orthogonalLoop=1;jettySize=auto;html=1;entryX=0.5;entryY=0;entryDx=0;entryDy=0;" edge="1" parent="1" source="mXG6o0LxJBM9iFZ1iKF0-37" target="mXG6o0LxJBM9iFZ1iKF0-38">
          <mxGeometry relative="1" as="geometry" />
        </mxCell>
        <mxCell id="mXG6o0LxJBM9iFZ1iKF0-37" value="int count = 0;" style="rounded=0;whiteSpace=wrap;html=1;" vertex="1" parent="1">
          <mxGeometry x="514" y="85" width="80" height="20" as="geometry" />
        </mxCell>
        <mxCell id="mXG6o0LxJBM9iFZ1iKF0-44" style="edgeStyle=orthogonalEdgeStyle;rounded=0;orthogonalLoop=1;jettySize=auto;html=1;entryX=0.5;entryY=0;entryDx=0;entryDy=0;" edge="1" parent="1" source="mXG6o0LxJBM9iFZ1iKF0-38" target="mXG6o0LxJBM9iFZ1iKF0-43">
          <mxGeometry relative="1" as="geometry" />
        </mxCell>
        <mxCell id="mXG6o0LxJBM9iFZ1iKF0-38" value="int l;" style="rounded=0;whiteSpace=wrap;html=1;" vertex="1" parent="1">
          <mxGeometry x="536.5" y="122.5" width="35" height="20" as="geometry" />
        </mxCell>
        <mxCell id="mXG6o0LxJBM9iFZ1iKF0-42" value="{" style="text;html=1;align=center;verticalAlign=middle;whiteSpace=wrap;rounded=0;" vertex="1" parent="1">
          <mxGeometry x="529" y="65" width="19" height="20" as="geometry" />
        </mxCell>
        <mxCell id="mXG6o0LxJBM9iFZ1iKF0-46" style="edgeStyle=orthogonalEdgeStyle;rounded=0;orthogonalLoop=1;jettySize=auto;html=1;entryX=0.5;entryY=0;entryDx=0;entryDy=0;" edge="1" parent="1" source="mXG6o0LxJBM9iFZ1iKF0-43" target="mXG6o0LxJBM9iFZ1iKF0-45">
          <mxGeometry relative="1" as="geometry" />
        </mxCell>
        <mxCell id="mXG6o0LxJBM9iFZ1iKF0-56" style="edgeStyle=orthogonalEdgeStyle;rounded=0;orthogonalLoop=1;jettySize=auto;html=1;entryX=0.5;entryY=0;entryDx=0;entryDy=0;" edge="1" parent="1" source="mXG6o0LxJBM9iFZ1iKF0-43" target="mXG6o0LxJBM9iFZ1iKF0-61">
          <mxGeometry relative="1" as="geometry">
            <mxPoint x="679" y="335" as="targetPoint" />
          </mxGeometry>
        </mxCell>
        <mxCell id="mXG6o0LxJBM9iFZ1iKF0-43" value="for (int i = 0; i &amp;lt; n; i++)" style="shape=hexagon;perimeter=hexagonPerimeter2;whiteSpace=wrap;html=1;fixedSize=1;" vertex="1" parent="1">
          <mxGeometry x="479" y="161" width="150" height="20" as="geometry" />
        </mxCell>
        <mxCell id="mXG6o0LxJBM9iFZ1iKF0-48" style="edgeStyle=orthogonalEdgeStyle;rounded=0;orthogonalLoop=1;jettySize=auto;html=1;entryX=0.5;entryY=0;entryDx=0;entryDy=0;" edge="1" parent="1" source="mXG6o0LxJBM9iFZ1iKF0-45" target="mXG6o0LxJBM9iFZ1iKF0-47">
          <mxGeometry relative="1" as="geometry" />
        </mxCell>
        <mxCell id="mXG6o0LxJBM9iFZ1iKF0-45" value="l = mas[i].size();" style="rounded=0;whiteSpace=wrap;html=1;" vertex="1" parent="1">
          <mxGeometry x="504" y="202" width="100" height="20" as="geometry" />
        </mxCell>
        <mxCell id="mXG6o0LxJBM9iFZ1iKF0-50" style="edgeStyle=orthogonalEdgeStyle;rounded=0;orthogonalLoop=1;jettySize=auto;html=1;entryX=0.5;entryY=0;entryDx=0;entryDy=0;" edge="1" parent="1" source="mXG6o0LxJBM9iFZ1iKF0-47" target="mXG6o0LxJBM9iFZ1iKF0-49">
          <mxGeometry relative="1" as="geometry">
            <Array as="points">
              <mxPoint x="439" y="263" />
            </Array>
          </mxGeometry>
        </mxCell>
        <mxCell id="mXG6o0LxJBM9iFZ1iKF0-53" style="edgeStyle=orthogonalEdgeStyle;rounded=0;orthogonalLoop=1;jettySize=auto;html=1;" edge="1" parent="1" source="mXG6o0LxJBM9iFZ1iKF0-47">
          <mxGeometry relative="1" as="geometry">
            <mxPoint x="559" y="314" as="targetPoint" />
            <Array as="points">
              <mxPoint x="669" y="263" />
              <mxPoint x="669" y="314" />
              <mxPoint x="579" y="314" />
            </Array>
          </mxGeometry>
        </mxCell>
        <mxCell id="mXG6o0LxJBM9iFZ1iKF0-47" value="if (mas[i][0] == mas[i][l-1])" style="rhombus;whiteSpace=wrap;html=1;" vertex="1" parent="1">
          <mxGeometry x="454" y="243" width="200" height="40" as="geometry" />
        </mxCell>
        <mxCell id="mXG6o0LxJBM9iFZ1iKF0-54" style="edgeStyle=orthogonalEdgeStyle;rounded=0;orthogonalLoop=1;jettySize=auto;html=1;" edge="1" parent="1" source="mXG6o0LxJBM9iFZ1iKF0-49">
          <mxGeometry relative="1" as="geometry">
            <mxPoint x="559" y="315" as="targetPoint" />
            <Array as="points">
              <mxPoint x="439" y="315" />
            </Array>
          </mxGeometry>
        </mxCell>
        <mxCell id="mXG6o0LxJBM9iFZ1iKF0-49" value="count += 1;" style="rounded=0;whiteSpace=wrap;html=1;" vertex="1" parent="1">
          <mxGeometry x="404" y="285" width="70" height="20" as="geometry" />
        </mxCell>
        <mxCell id="mXG6o0LxJBM9iFZ1iKF0-51" value="1" style="text;html=1;align=center;verticalAlign=middle;whiteSpace=wrap;rounded=0;" vertex="1" parent="1">
          <mxGeometry x="536.5" y="185" width="16" height="15" as="geometry" />
        </mxCell>
        <mxCell id="mXG6o0LxJBM9iFZ1iKF0-52" value="1" style="text;html=1;align=center;verticalAlign=middle;whiteSpace=wrap;rounded=0;" vertex="1" parent="1">
          <mxGeometry x="438" y="247.5" width="16" height="15" as="geometry" />
        </mxCell>
        <mxCell id="mXG6o0LxJBM9iFZ1iKF0-55" value="" style="endArrow=classic;html=1;rounded=0;entryX=0;entryY=0.5;entryDx=0;entryDy=0;" edge="1" parent="1" target="mXG6o0LxJBM9iFZ1iKF0-43">
          <mxGeometry width="50" height="50" relative="1" as="geometry">
            <mxPoint x="559" y="315" as="sourcePoint" />
            <mxPoint x="419" y="155" as="targetPoint" />
            <Array as="points">
              <mxPoint x="559" y="335" />
              <mxPoint x="479" y="335" />
              <mxPoint x="399" y="335" />
              <mxPoint x="399" y="171" />
            </Array>
          </mxGeometry>
        </mxCell>
        <mxCell id="mXG6o0LxJBM9iFZ1iKF0-57" value="0" style="text;html=1;align=center;verticalAlign=middle;whiteSpace=wrap;rounded=0;" vertex="1" parent="1">
          <mxGeometry x="654" y="247.5" width="20" height="15" as="geometry" />
        </mxCell>
        <mxCell id="mXG6o0LxJBM9iFZ1iKF0-58" value="0" style="text;html=1;align=center;verticalAlign=middle;whiteSpace=wrap;rounded=0;" vertex="1" parent="1">
          <mxGeometry x="629" y="155" width="20" height="15" as="geometry" />
        </mxCell>
        <mxCell id="mXG6o0LxJBM9iFZ1iKF0-59" value="{" style="text;html=1;align=center;verticalAlign=middle;whiteSpace=wrap;rounded=0;" vertex="1" parent="1">
          <mxGeometry x="519" y="180" width="19" height="20" as="geometry" />
        </mxCell>
        <mxCell id="mXG6o0LxJBM9iFZ1iKF0-60" value="}" style="text;html=1;align=center;verticalAlign=middle;whiteSpace=wrap;rounded=0;" vertex="1" parent="1">
          <mxGeometry x="561.5" y="317" width="10" height="20" as="geometry" />
        </mxCell>
        <mxCell id="mXG6o0LxJBM9iFZ1iKF0-61" value="return count;" style="rounded=0;whiteSpace=wrap;html=1;" vertex="1" parent="1">
          <mxGeometry x="639" y="325" width="80" height="20" as="geometry" />
        </mxCell>
        <mxCell id="mXG6o0LxJBM9iFZ1iKF0-62" value="}" style="text;html=1;align=center;verticalAlign=middle;whiteSpace=wrap;rounded=0;" vertex="1" parent="1">
          <mxGeometry x="719" y="325" width="14" height="20" as="geometry" />
        </mxCell>
        <mxCell id="mXG6o0LxJBM9iFZ1iKF0-70" style="edgeStyle=orthogonalEdgeStyle;rounded=0;orthogonalLoop=1;jettySize=auto;html=1;entryX=0.5;entryY=0;entryDx=0;entryDy=0;" edge="1" parent="1" source="mXG6o0LxJBM9iFZ1iKF0-63" target="mXG6o0LxJBM9iFZ1iKF0-69">
          <mxGeometry relative="1" as="geometry" />
        </mxCell>
        <mxCell id="mXG6o0LxJBM9iFZ1iKF0-63" value="cin &amp;gt;&amp;gt; n;" style="shape=parallelogram;perimeter=parallelogramPerimeter;whiteSpace=wrap;html=1;fixedSize=1;" vertex="1" parent="1">
          <mxGeometry x="195" y="308" width="90" height="20" as="geometry" />
        </mxCell>
        <mxCell id="mXG6o0LxJBM9iFZ1iKF0-68" style="edgeStyle=orthogonalEdgeStyle;rounded=0;orthogonalLoop=1;jettySize=auto;html=1;entryX=0.5;entryY=0;entryDx=0;entryDy=0;" edge="1" parent="1" source="mXG6o0LxJBM9iFZ1iKF0-64" target="mXG6o0LxJBM9iFZ1iKF0-63">
          <mxGeometry relative="1" as="geometry" />
        </mxCell>
        <mxCell id="mXG6o0LxJBM9iFZ1iKF0-64" value="cout &amp;lt;&amp;lt; &quot;Введите длину массива: &quot;;" style="shape=parallelogram;perimeter=parallelogramPerimeter;whiteSpace=wrap;html=1;fixedSize=1;" vertex="1" parent="1">
          <mxGeometry x="120" y="270" width="240" height="20" as="geometry" />
        </mxCell>
        <mxCell id="mXG6o0LxJBM9iFZ1iKF0-72" style="edgeStyle=orthogonalEdgeStyle;rounded=0;orthogonalLoop=1;jettySize=auto;html=1;entryX=0.5;entryY=0;entryDx=0;entryDy=0;" edge="1" parent="1" source="mXG6o0LxJBM9iFZ1iKF0-69" target="mXG6o0LxJBM9iFZ1iKF0-71">
          <mxGeometry relative="1" as="geometry" />
        </mxCell>
        <mxCell id="mXG6o0LxJBM9iFZ1iKF0-76" style="edgeStyle=orthogonalEdgeStyle;rounded=0;orthogonalLoop=1;jettySize=auto;html=1;entryX=0.5;entryY=0;entryDx=0;entryDy=0;entryPerimeter=0;" edge="1" parent="1" source="mXG6o0LxJBM9iFZ1iKF0-69" target="mXG6o0LxJBM9iFZ1iKF0-77">
          <mxGeometry relative="1" as="geometry">
            <mxPoint x="320" y="470" as="targetPoint" />
            <Array as="points">
              <mxPoint x="330" y="357" />
            </Array>
          </mxGeometry>
        </mxCell>
        <mxCell id="mXG6o0LxJBM9iFZ1iKF0-69" value="for (int i = 0; i &amp;lt; n; i++)" style="shape=hexagon;perimeter=hexagonPerimeter2;whiteSpace=wrap;html=1;fixedSize=1;" vertex="1" parent="1">
          <mxGeometry x="167.5" y="347.5" width="145" height="18" as="geometry" />
        </mxCell>
        <mxCell id="mXG6o0LxJBM9iFZ1iKF0-73" style="edgeStyle=orthogonalEdgeStyle;rounded=0;orthogonalLoop=1;jettySize=auto;html=1;entryX=0;entryY=0.5;entryDx=0;entryDy=0;" edge="1" parent="1" source="mXG6o0LxJBM9iFZ1iKF0-71" target="mXG6o0LxJBM9iFZ1iKF0-69">
          <mxGeometry relative="1" as="geometry">
            <mxPoint x="130" y="370" as="targetPoint" />
            <Array as="points">
              <mxPoint x="240" y="410" />
              <mxPoint x="150" y="410" />
              <mxPoint x="150" y="357" />
            </Array>
          </mxGeometry>
        </mxCell>
        <mxCell id="mXG6o0LxJBM9iFZ1iKF0-71" value="dig[i] = rand() % 100 - 50;" style="rounded=0;whiteSpace=wrap;html=1;" vertex="1" parent="1">
          <mxGeometry x="170" y="383" width="140" height="20" as="geometry" />
        </mxCell>
        <mxCell id="mXG6o0LxJBM9iFZ1iKF0-74" value="1" style="text;html=1;align=center;verticalAlign=middle;whiteSpace=wrap;rounded=0;" vertex="1" parent="1">
          <mxGeometry x="223" y="365.5" width="16" height="15" as="geometry" />
        </mxCell>
        <mxCell id="mXG6o0LxJBM9iFZ1iKF0-75" value="0" style="text;html=1;align=center;verticalAlign=middle;whiteSpace=wrap;rounded=0;" vertex="1" parent="1">
          <mxGeometry x="310" y="340.5" width="20" height="15" as="geometry" />
        </mxCell>
        <mxCell id="mXG6o0LxJBM9iFZ1iKF0-80" style="edgeStyle=orthogonalEdgeStyle;rounded=0;orthogonalLoop=1;jettySize=auto;html=1;" edge="1" parent="1" source="mXG6o0LxJBM9iFZ1iKF0-77" target="mXG6o0LxJBM9iFZ1iKF0-79">
          <mxGeometry relative="1" as="geometry" />
        </mxCell>
        <mxCell id="mXG6o0LxJBM9iFZ1iKF0-77" value="cout &amp;lt;&amp;lt; &quot;Начальный массив&quot; &amp;lt;&amp;lt; endl;" style="shape=parallelogram;perimeter=parallelogramPerimeter;whiteSpace=wrap;html=1;fixedSize=1;" vertex="1" parent="1">
          <mxGeometry x="210" y="418" width="240" height="20" as="geometry" />
        </mxCell>
        <mxCell id="mXG6o0LxJBM9iFZ1iKF0-82" style="edgeStyle=orthogonalEdgeStyle;rounded=0;orthogonalLoop=1;jettySize=auto;html=1;" edge="1" parent="1" source="mXG6o0LxJBM9iFZ1iKF0-79" target="mXG6o0LxJBM9iFZ1iKF0-81">
          <mxGeometry relative="1" as="geometry" />
        </mxCell>
        <mxCell id="mXG6o0LxJBM9iFZ1iKF0-87" style="edgeStyle=orthogonalEdgeStyle;rounded=0;orthogonalLoop=1;jettySize=auto;html=1;entryX=0.5;entryY=0;entryDx=0;entryDy=0;" edge="1" parent="1" source="mXG6o0LxJBM9iFZ1iKF0-79" target="mXG6o0LxJBM9iFZ1iKF0-86">
          <mxGeometry relative="1" as="geometry">
            <Array as="points">
              <mxPoint x="415" y="466" />
            </Array>
          </mxGeometry>
        </mxCell>
        <mxCell id="mXG6o0LxJBM9iFZ1iKF0-79" value="for (int i = 0; i &amp;lt; n; i++)" style="shape=hexagon;perimeter=hexagonPerimeter2;whiteSpace=wrap;html=1;fixedSize=1;" vertex="1" parent="1">
          <mxGeometry x="255" y="456" width="150" height="20" as="geometry" />
        </mxCell>
        <mxCell id="mXG6o0LxJBM9iFZ1iKF0-83" style="edgeStyle=orthogonalEdgeStyle;rounded=0;orthogonalLoop=1;jettySize=auto;html=1;entryX=0;entryY=0.5;entryDx=0;entryDy=0;" edge="1" parent="1" source="mXG6o0LxJBM9iFZ1iKF0-81" target="mXG6o0LxJBM9iFZ1iKF0-79">
          <mxGeometry relative="1" as="geometry">
            <mxPoint x="220" y="490" as="targetPoint" />
            <Array as="points">
              <mxPoint x="330" y="520" />
              <mxPoint x="240" y="520" />
              <mxPoint x="240" y="466" />
            </Array>
          </mxGeometry>
        </mxCell>
        <mxCell id="mXG6o0LxJBM9iFZ1iKF0-81" value="cout &amp;lt;&amp;lt; dig[i] &amp;lt;&amp;lt; &#39; &#39;;" style="shape=parallelogram;perimeter=parallelogramPerimeter;whiteSpace=wrap;html=1;fixedSize=1;" vertex="1" parent="1">
          <mxGeometry x="260" y="495" width="140" height="15" as="geometry" />
        </mxCell>
        <mxCell id="mXG6o0LxJBM9iFZ1iKF0-84" value="1" style="text;html=1;align=center;verticalAlign=middle;whiteSpace=wrap;rounded=0;" vertex="1" parent="1">
          <mxGeometry x="310" y="476" width="16" height="15" as="geometry" />
        </mxCell>
        <mxCell id="mXG6o0LxJBM9iFZ1iKF0-85" value="0" style="text;html=1;align=center;verticalAlign=middle;whiteSpace=wrap;rounded=0;" vertex="1" parent="1">
          <mxGeometry x="400" y="450" width="20" height="15" as="geometry" />
        </mxCell>
        <mxCell id="mXG6o0LxJBM9iFZ1iKF0-121" style="edgeStyle=orthogonalEdgeStyle;rounded=0;orthogonalLoop=1;jettySize=auto;html=1;entryX=0.5;entryY=0;entryDx=0;entryDy=0;" edge="1" parent="1" source="mXG6o0LxJBM9iFZ1iKF0-86" target="mXG6o0LxJBM9iFZ1iKF0-120">
          <mxGeometry relative="1" as="geometry" />
        </mxCell>
        <mxCell id="mXG6o0LxJBM9iFZ1iKF0-86" value="cout &amp;lt;&amp;lt; endl;" style="shape=parallelogram;perimeter=parallelogramPerimeter;whiteSpace=wrap;html=1;fixedSize=1;" vertex="1" parent="1">
          <mxGeometry x="360" y="520" width="110" height="20" as="geometry" />
        </mxCell>
        <mxCell id="mXG6o0LxJBM9iFZ1iKF0-91" style="edgeStyle=orthogonalEdgeStyle;rounded=0;orthogonalLoop=1;jettySize=auto;html=1;entryX=0.5;entryY=0;entryDx=0;entryDy=0;" edge="1" parent="1" source="mXG6o0LxJBM9iFZ1iKF0-88" target="mXG6o0LxJBM9iFZ1iKF0-90">
          <mxGeometry relative="1" as="geometry" />
        </mxCell>
        <mxCell id="mXG6o0LxJBM9iFZ1iKF0-88" value="cout &amp;lt;&amp;lt; &quot;Количество отрицательных чисел = &quot; &amp;lt;&amp;lt; count(dig, n) &amp;lt;&amp;lt; endl;" style="shape=parallelogram;perimeter=parallelogramPerimeter;whiteSpace=wrap;html=1;fixedSize=1;" vertex="1" parent="1">
          <mxGeometry x="200" y="600" width="430" height="20" as="geometry" />
        </mxCell>
        <mxCell id="mXG6o0LxJBM9iFZ1iKF0-95" style="edgeStyle=orthogonalEdgeStyle;rounded=0;orthogonalLoop=1;jettySize=auto;html=1;entryX=0.5;entryY=0;entryDx=0;entryDy=0;" edge="1" parent="1" source="mXG6o0LxJBM9iFZ1iKF0-90" target="mXG6o0LxJBM9iFZ1iKF0-94">
          <mxGeometry relative="1" as="geometry" />
        </mxCell>
        <mxCell id="mXG6o0LxJBM9iFZ1iKF0-90" value="cout &amp;lt;&amp;lt; &quot;Введите количество слов: &quot;;" style="shape=parallelogram;perimeter=parallelogramPerimeter;whiteSpace=wrap;html=1;fixedSize=1;" vertex="1" parent="1">
          <mxGeometry x="295" y="640" width="240" height="20" as="geometry" />
        </mxCell>
        <mxCell id="mXG6o0LxJBM9iFZ1iKF0-97" style="edgeStyle=orthogonalEdgeStyle;rounded=0;orthogonalLoop=1;jettySize=auto;html=1;entryX=0.5;entryY=0;entryDx=0;entryDy=0;" edge="1" parent="1" source="mXG6o0LxJBM9iFZ1iKF0-94" target="mXG6o0LxJBM9iFZ1iKF0-96">
          <mxGeometry relative="1" as="geometry" />
        </mxCell>
        <mxCell id="mXG6o0LxJBM9iFZ1iKF0-94" value="cin &amp;gt;&amp;gt; n;" style="shape=parallelogram;perimeter=parallelogramPerimeter;whiteSpace=wrap;html=1;fixedSize=1;" vertex="1" parent="1">
          <mxGeometry x="375" y="680" width="80" height="20" as="geometry" />
        </mxCell>
        <mxCell id="mXG6o0LxJBM9iFZ1iKF0-99" style="edgeStyle=orthogonalEdgeStyle;rounded=0;orthogonalLoop=1;jettySize=auto;html=1;entryX=0.5;entryY=0;entryDx=0;entryDy=0;" edge="1" parent="1" source="mXG6o0LxJBM9iFZ1iKF0-96" target="mXG6o0LxJBM9iFZ1iKF0-98">
          <mxGeometry relative="1" as="geometry" />
        </mxCell>
        <mxCell id="mXG6o0LxJBM9iFZ1iKF0-96" value="string* str = new string[n];" style="rounded=0;whiteSpace=wrap;html=1;" vertex="1" parent="1">
          <mxGeometry x="345" y="720" width="140" height="20" as="geometry" />
        </mxCell>
        <mxCell id="mXG6o0LxJBM9iFZ1iKF0-101" style="edgeStyle=orthogonalEdgeStyle;rounded=0;orthogonalLoop=1;jettySize=auto;html=1;entryX=0.5;entryY=0;entryDx=0;entryDy=0;" edge="1" parent="1" source="mXG6o0LxJBM9iFZ1iKF0-98" target="mXG6o0LxJBM9iFZ1iKF0-100">
          <mxGeometry relative="1" as="geometry" />
        </mxCell>
        <mxCell id="mXG6o0LxJBM9iFZ1iKF0-98" value="string s;" style="rounded=0;whiteSpace=wrap;html=1;" vertex="1" parent="1">
          <mxGeometry x="390" y="760" width="50" height="20" as="geometry" />
        </mxCell>
        <mxCell id="mXG6o0LxJBM9iFZ1iKF0-103" style="edgeStyle=orthogonalEdgeStyle;rounded=0;orthogonalLoop=1;jettySize=auto;html=1;" edge="1" parent="1" source="mXG6o0LxJBM9iFZ1iKF0-100" target="mXG6o0LxJBM9iFZ1iKF0-102">
          <mxGeometry relative="1" as="geometry" />
        </mxCell>
        <mxCell id="mXG6o0LxJBM9iFZ1iKF0-112" style="edgeStyle=orthogonalEdgeStyle;rounded=0;orthogonalLoop=1;jettySize=auto;html=1;" edge="1" parent="1" source="mXG6o0LxJBM9iFZ1iKF0-100" target="mXG6o0LxJBM9iFZ1iKF0-111">
          <mxGeometry relative="1" as="geometry">
            <Array as="points">
              <mxPoint x="503" y="810" />
            </Array>
          </mxGeometry>
        </mxCell>
        <mxCell id="mXG6o0LxJBM9iFZ1iKF0-100" value="for (int i = 0; i &amp;lt; n; i++)" style="shape=hexagon;perimeter=hexagonPerimeter2;whiteSpace=wrap;html=1;fixedSize=1;" vertex="1" parent="1">
          <mxGeometry x="342" y="800" width="146" height="20" as="geometry" />
        </mxCell>
        <mxCell id="mXG6o0LxJBM9iFZ1iKF0-106" style="edgeStyle=orthogonalEdgeStyle;rounded=0;orthogonalLoop=1;jettySize=auto;html=1;entryX=0.5;entryY=0;entryDx=0;entryDy=0;" edge="1" parent="1" source="mXG6o0LxJBM9iFZ1iKF0-102" target="mXG6o0LxJBM9iFZ1iKF0-105">
          <mxGeometry relative="1" as="geometry" />
        </mxCell>
        <mxCell id="mXG6o0LxJBM9iFZ1iKF0-102" value="cin &amp;gt;&amp;gt; s;" style="shape=parallelogram;perimeter=parallelogramPerimeter;whiteSpace=wrap;html=1;fixedSize=1;" vertex="1" parent="1">
          <mxGeometry x="375" y="840" width="80" height="20" as="geometry" />
        </mxCell>
        <mxCell id="mXG6o0LxJBM9iFZ1iKF0-107" style="edgeStyle=orthogonalEdgeStyle;rounded=0;orthogonalLoop=1;jettySize=auto;html=1;entryX=0;entryY=0.5;entryDx=0;entryDy=0;" edge="1" parent="1" source="mXG6o0LxJBM9iFZ1iKF0-105" target="mXG6o0LxJBM9iFZ1iKF0-100">
          <mxGeometry relative="1" as="geometry">
            <mxPoint x="320" y="810" as="targetPoint" />
            <Array as="points">
              <mxPoint x="414" y="920" />
              <mxPoint x="320" y="920" />
              <mxPoint x="320" y="810" />
            </Array>
          </mxGeometry>
        </mxCell>
        <mxCell id="mXG6o0LxJBM9iFZ1iKF0-105" value="str[i] = s;" style="rounded=0;whiteSpace=wrap;html=1;" vertex="1" parent="1">
          <mxGeometry x="385" y="880" width="60" height="20" as="geometry" />
        </mxCell>
        <mxCell id="mXG6o0LxJBM9iFZ1iKF0-108" value="1" style="text;html=1;align=center;verticalAlign=middle;whiteSpace=wrap;rounded=0;" vertex="1" parent="1">
          <mxGeometry x="395" y="820" width="16" height="15" as="geometry" />
        </mxCell>
        <mxCell id="mXG6o0LxJBM9iFZ1iKF0-109" value="{" style="text;html=1;align=center;verticalAlign=middle;whiteSpace=wrap;rounded=0;" vertex="1" parent="1">
          <mxGeometry x="376" y="820" width="19" height="20" as="geometry" />
        </mxCell>
        <mxCell id="mXG6o0LxJBM9iFZ1iKF0-110" value="}" style="text;html=1;align=center;verticalAlign=middle;whiteSpace=wrap;rounded=0;" vertex="1" parent="1">
          <mxGeometry x="420" y="900" width="14" height="20" as="geometry" />
        </mxCell>
        <mxCell id="mXG6o0LxJBM9iFZ1iKF0-117" style="edgeStyle=orthogonalEdgeStyle;rounded=0;orthogonalLoop=1;jettySize=auto;html=1;entryX=0.5;entryY=0;entryDx=0;entryDy=0;" edge="1" parent="1" source="mXG6o0LxJBM9iFZ1iKF0-111" target="mXG6o0LxJBM9iFZ1iKF0-115">
          <mxGeometry relative="1" as="geometry" />
        </mxCell>
        <mxCell id="mXG6o0LxJBM9iFZ1iKF0-111" value="cout &amp;lt;&amp;lt; &quot;Количество слов, с одинаковой буквой в конце и в начале = &quot; &amp;lt;&amp;lt; count(str, n) &amp;lt;&amp;lt; endl;" style="shape=parallelogram;perimeter=parallelogramPerimeter;whiteSpace=wrap;html=1;fixedSize=1;" vertex="1" parent="1">
          <mxGeometry x="223" y="930" width="560" height="20" as="geometry" />
        </mxCell>
        <mxCell id="mXG6o0LxJBM9iFZ1iKF0-115" value="return 0;" style="ellipse;whiteSpace=wrap;html=1;" vertex="1" parent="1">
          <mxGeometry x="468" y="970" width="70" height="30" as="geometry" />
        </mxCell>
        <mxCell id="mXG6o0LxJBM9iFZ1iKF0-118" value="}" style="text;html=1;align=center;verticalAlign=middle;whiteSpace=wrap;rounded=0;" vertex="1" parent="1">
          <mxGeometry x="539" y="975" width="14" height="20" as="geometry" />
        </mxCell>
        <mxCell id="mXG6o0LxJBM9iFZ1iKF0-119" value="0" style="text;html=1;align=center;verticalAlign=middle;whiteSpace=wrap;rounded=0;" vertex="1" parent="1">
          <mxGeometry x="488" y="793" width="20" height="15" as="geometry" />
        </mxCell>
        <mxCell id="mXG6o0LxJBM9iFZ1iKF0-123" style="edgeStyle=orthogonalEdgeStyle;rounded=0;orthogonalLoop=1;jettySize=auto;html=1;entryX=0.5;entryY=0;entryDx=0;entryDy=0;" edge="1" parent="1" source="mXG6o0LxJBM9iFZ1iKF0-120" target="mXG6o0LxJBM9iFZ1iKF0-88">
          <mxGeometry relative="1" as="geometry" />
        </mxCell>
        <mxCell id="mXG6o0LxJBM9iFZ1iKF0-120" value="&lt;p style=&quot;text-indent:17,5000pt;mso-char-indent-count:1,2500;text-autospace:ideograph-numeric;&lt;br/&gt;mso-pagination:widow-orphan;text-align:justify;text-justify:inter-ideograph;&lt;br/&gt;line-height:150%;&quot; align=&quot;justify&quot; class=&quot;MsoNormal&quot;&gt;&lt;font style=&quot;font-size: 14px;&quot;&gt;α&lt;/font&gt;&lt;br&gt;&lt;/p&gt;" style="ellipse;whiteSpace=wrap;html=1;aspect=fixed;" vertex="1" parent="1">
          <mxGeometry x="400" y="555" width="30" height="30" as="geometry" />
        </mxCell>
      </root>
    </mxGraphModel>
  </diagram>
</mxfile>
